<svg width="40" height="40" viewBox="0 0 40 40" fill="none" xmlns="http://www.w3.org/2000/svg">
<circle cx="20" cy="20" r="20" fill="#20222B"/>
<path d="M31.6002 13.2119C30.7761 13.566 29.8911 13.8049 28.9605 13.9112C29.9093 13.3615 30.6382 12.491 30.9819 11.454C30.0934 11.9623 29.1104 12.3333 28.0636 12.5316C27.2248 11.6685 26.0303 11.129 24.7077 11.129C22.1695 11.129 20.1131 13.1178 20.1131 15.5717C20.1131 15.9196 20.153 16.2594 20.2315 16.5844C16.412 16.3989 13.026 14.6301 10.7588 11.942C10.3639 12.5986 10.137 13.3615 10.137 14.1759C10.137 15.7179 10.9485 17.0772 12.1808 17.8746C11.4282 17.8509 10.7196 17.6519 10.0999 17.3188C10.0992 17.3371 10.0992 17.3567 10.0992 17.3743C10.0992 19.5276 11.683 21.3235 13.7856 21.7317C13.4005 21.8325 12.9944 21.8874 12.575 21.8874C12.2782 21.8874 11.9911 21.8596 11.711 21.8082C12.295 23.5722 13.9929 24.857 16.0031 24.8936C14.4312 26.085 12.4497 26.7964 10.2967 26.7964C9.92558 26.7964 9.55939 26.7754 9.2002 26.7341C11.2335 27.9932 13.6491 28.729 16.2447 28.729C24.6972 28.729 29.3204 21.9591 29.3204 16.0875C29.3204 15.8952 29.3148 15.703 29.3064 15.5121C30.2047 14.886 30.9833 14.1041 31.6002 13.2119Z" fill="white"/>
</svg>
