<svg width="40" height="40" viewBox="0 0 40 40" fill="none" xmlns="http://www.w3.org/2000/svg">
<circle cx="20" cy="20" r="20" fill="#20222B"/>
<path fill-rule="evenodd" clip-rule="evenodd" d="M19.9045 10.129C14.4344 10.129 10 14.5634 10 20.0336C10 25.5037 14.4344 29.9381 19.9045 29.9381C25.3747 29.9381 29.8091 25.5037 29.8091 20.0336C29.8091 14.5634 25.3747 10.129 19.9045 10.129ZM28.1514 19.8969C26.9429 19.5902 25.7019 19.4302 24.4552 19.4204C23.8245 19.4193 23.1946 19.4655 22.5709 19.5585C22.5453 19.5624 22.5205 19.5684 22.4957 19.5744C22.4728 19.5799 22.4498 19.5855 22.4263 19.5893C22.2187 19.0915 21.9995 18.6 21.7687 18.1148C23.511 17.3808 25.0642 16.2611 26.3113 14.8401C27.4753 16.2711 28.1235 18.0525 28.1514 19.8969ZM21.0151 16.6273C22.5957 15.9651 23.998 14.9399 25.1086 13.6347C23.1207 12.0018 20.4792 11.4017 17.9809 12.0154C19.1201 13.4648 20.1351 15.0075 21.0151 16.6273ZM16.3222 12.6092C17.494 14.0457 18.5357 15.5836 19.4347 17.2047C17.081 17.8614 14.6442 18.1717 12.201 18.126C12.1346 18.126 12.0702 18.1227 12.0058 18.1194H12.0058H12.0058H12.0058C11.9658 18.1173 11.9258 18.1152 11.8853 18.114C12.4664 15.7077 14.0943 13.6881 16.3222 12.6092ZM11.6582 19.8709C11.6545 19.9248 11.6508 19.9787 11.6508 20.0335C11.651 22.0259 12.3758 23.9501 13.6898 25.4477C15.3528 22.858 17.8618 20.9247 20.7899 19.9769C20.6048 19.5447 20.4123 19.1164 20.2085 18.6944C17.6102 19.4616 14.9098 19.8265 12.201 19.7767C12.0774 19.7767 11.9572 19.7702 11.837 19.7638C11.7798 19.7608 11.7225 19.7577 11.6649 19.7554C11.6636 19.7941 11.6609 19.8325 11.6582 19.8709ZM14.907 26.5871C16.3897 24.1678 18.696 22.3651 21.4017 21.5105C22.1299 23.514 22.6488 25.5876 22.9503 27.698C20.2616 28.7778 17.2024 28.3552 14.907 26.5871ZM23.0371 21.1736C23.6953 23.03 24.1846 24.942 24.4989 26.8863V26.8863C26.3344 25.6528 27.5991 23.7354 28.0106 21.5626C26.8659 21.2528 25.6862 21.0907 24.5003 21.0803C24.0111 21.0797 23.5223 21.1108 23.0371 21.1736Z" fill="white"/>
</svg>
